<?xml version="1.0" standalone="no"?>
<!DOCTYPE svg PUBLIC "-//W3C//DTD SVG 20010904//EN"
 "http://www.w3.org/TR/2001/REC-SVG-20010904/DTD/svg10.dtd">
<svg version="1.0" xmlns="http://www.w3.org/2000/svg"
 width="200.000000pt" height="200.000000pt" viewBox="0 0 200.000000 200.000000"
 preserveAspectRatio="xMidYMid meet">

<g transform="translate(0.000000,200.000000) scale(0.100000,-0.100000)"
fill="#000000" stroke="none">
<path d="M287 1394 c-4 -4 -7 -22 -7 -41 l0 -33 -65 0 -65 0 0 -255 0 -255 64
0 65 0 3 -37 c3 -37 4 -38 43 -38 39 0 40 1 43 37 l3 38 221 2 220 3 36 100
c19 55 37 102 39 104 2 3 17 -6 34 -18 17 -13 35 -19 39 -15 4 5 16 36 26 69
l18 60 7 -60 c19 -166 19 -176 1 -171 -73 22 -72 22 -72 -28 l0 -46 354 0 355
0 3 -37 c3 -37 4 -38 43 -38 39 0 40 1 43 38 l3 37 85 0 84 0 0 255 0 255 -84
0 -85 0 -3 38 c-3 36 -4 37 -43 37 -39 0 -40 -1 -43 -37 l-3 -38 -639 0 -639
0 -3 38 c-3 35 -5 37 -38 40 -20 2 -39 0 -43 -4z"/>
<path d="M835 743 c-83 -113 -67 -223 32 -223 107 0 131 95 52 213 -17 26 -35
49 -40 52 -4 3 -24 -16 -44 -42z"/>
</g>
</svg>
